<?xml version="1.0" encoding="utf-8" ?>
<svg xmlns="http://www.w3.org/2000/svg" xmlns:xlink="http://www.w3.org/1999/xlink" width="24" height="20">
	<path fill="#8A8A8A" d="M5.1077189 17.768066Q3.7629924 17.768066 3.0740275 17.083252Q2.3850627 16.398438 2.3850627 15.070312L2.3850627 4.9682617Q2.3850627 3.6318359 3.0740275 2.9511719Q3.7629924 2.2705078 5.1077189 2.2705078L19.318657 2.2705078Q20.671684 2.2705078 21.360649 2.9511719Q22.049614 3.6318359 22.049614 4.9682617L22.049614 15.070312Q22.049614 16.398438 21.360649 17.083252Q20.671684 17.768066 19.318657 17.768066L5.1077189 17.768066ZM5.2073283 16.132812L19.227348 16.132812Q19.800102 16.132812 20.107231 15.833984Q20.41436 15.535156 20.41436 14.929199L20.41436 5.1010742Q20.41436 4.503418 20.107231 4.2045898Q19.800102 3.9057617 19.227348 3.9057617L5.2073283 3.9057617Q4.6262736 3.9057617 4.3232951 4.2045898Q4.0203166 4.503418 4.0203166 5.1010742L4.0203166 14.929199Q4.0203166 15.535156 4.3232951 15.833984Q4.6262736 16.132812 5.2073283 16.132812ZM8.9841843 16.398438L8.9841843 3.6235352L10.53643 3.6235352L10.53643 16.398438L8.9841843 16.398438ZM7.3572307 6.9438477L5.6555705 6.9438477Q5.4397502 6.9438477 5.277885 6.777832Q5.1160197 6.6118164 5.1160197 6.4125977Q5.1160197 6.1967773 5.277885 6.0390625Q5.4397502 5.8813477 5.6555705 5.8813477L7.3572307 5.8813477Q7.5813518 5.8813477 7.743217 6.0390625Q7.9050822 6.1967773 7.9050822 6.4125977Q7.9050822 6.6118164 7.743217 6.777832Q7.5813518 6.9438477 7.3572307 6.9438477ZM7.3572307 9.168457L5.6555705 9.168457Q5.4397502 9.168457 5.277885 9.0065918Q5.1160197 8.8447266 5.1160197 8.6289062Q5.1160197 8.4213867 5.277885 8.2636719Q5.4397502 8.105957 5.6555705 8.105957L7.3572307 8.105957Q7.5813518 8.105957 7.743217 8.2636719Q7.9050822 8.4213867 7.9050822 8.6289062Q7.9050822 8.8447266 7.743217 9.0065918Q7.5813518 9.168457 7.3572307 9.168457ZM7.3572307 11.384766L5.6555705 11.384766Q5.4397502 11.384766 5.277885 11.227051Q5.1160197 11.069336 5.1160197 10.861816Q5.1160197 10.645996 5.277885 10.488281Q5.4397502 10.330566 5.6555705 10.330566L7.3572307 10.330566Q7.5813518 10.330566 7.743217 10.488281Q7.9050822 10.645996 7.9050822 10.861816Q7.9050822 11.069336 7.743217 11.227051Q7.5813518 11.384766 7.3572307 11.384766Z"/>
</svg>
